<mxfile host="app.diagrams.net" modified="2023-06-15T13:59:01.942Z" agent="Mozilla/5.0 (Windows NT 10.0; Win64; x64) AppleWebKit/537.36 (KHTML, like Gecko) Chrome/114.0.0.0 Safari/537.36" etag="8cK3joLvixxvLgfB1x7I" version="21.4.0" type="github">
  <diagram id="R2lEEEUBdFMjLlhIrx00" name="Page-1">
    <mxGraphModel dx="1839" dy="543" grid="1" gridSize="10" guides="1" tooltips="1" connect="1" arrows="1" fold="1" page="1" pageScale="1" pageWidth="850" pageHeight="1100" math="0" shadow="0" extFonts="Permanent Marker^https://fonts.googleapis.com/css?family=Permanent+Marker">
      <root>
        <mxCell id="0" />
        <mxCell id="1" parent="0" />
        <mxCell id="WJ2xPbu4sK1mDt2JDDbc-1" value="seller" style="rounded=0;whiteSpace=wrap;html=1;" parent="1" vertex="1">
          <mxGeometry x="-180" y="170" width="90" height="40" as="geometry" />
        </mxCell>
        <mxCell id="WJ2xPbu4sK1mDt2JDDbc-2" value="username" style="ellipse;whiteSpace=wrap;html=1;" parent="1" vertex="1">
          <mxGeometry x="-137.5" y="20" width="80" height="50" as="geometry" />
        </mxCell>
        <mxCell id="WJ2xPbu4sK1mDt2JDDbc-3" value="password" style="ellipse;whiteSpace=wrap;html=1;" parent="1" vertex="1">
          <mxGeometry x="-52.5" y="20" width="80" height="50" as="geometry" />
        </mxCell>
        <mxCell id="WJ2xPbu4sK1mDt2JDDbc-4" value="DoB" style="ellipse;whiteSpace=wrap;html=1;" parent="1" vertex="1">
          <mxGeometry x="-217.5" y="30" width="70" height="40" as="geometry" />
        </mxCell>
        <mxCell id="WJ2xPbu4sK1mDt2JDDbc-5" value="phone number" style="ellipse;whiteSpace=wrap;html=1;" parent="1" vertex="1">
          <mxGeometry x="-47.5" y="80" width="100" height="50" as="geometry" />
        </mxCell>
        <mxCell id="WJ2xPbu4sK1mDt2JDDbc-6" value="credit score" style="ellipse;whiteSpace=wrap;html=1;" parent="1" vertex="1">
          <mxGeometry x="-310" y="70" width="100" height="60" as="geometry" />
        </mxCell>
        <mxCell id="WJ2xPbu4sK1mDt2JDDbc-7" value="store" style="rounded=0;whiteSpace=wrap;html=1;" parent="1" vertex="1">
          <mxGeometry x="-180" y="740" width="90" height="40" as="geometry" />
        </mxCell>
        <mxCell id="WJ2xPbu4sK1mDt2JDDbc-8" value="&lt;u&gt;store_id&lt;/u&gt;" style="ellipse;whiteSpace=wrap;html=1;" parent="1" vertex="1">
          <mxGeometry x="-332.88" y="735" width="85" height="50" as="geometry" />
        </mxCell>
        <mxCell id="WJ2xPbu4sK1mDt2JDDbc-9" value="name" style="ellipse;whiteSpace=wrap;html=1;" parent="1" vertex="1">
          <mxGeometry x="-260.38" y="875" width="95" height="55" as="geometry" />
        </mxCell>
        <mxCell id="WJ2xPbu4sK1mDt2JDDbc-10" value="location" style="ellipse;whiteSpace=wrap;html=1;" parent="1" vertex="1">
          <mxGeometry x="-123.13" y="815" width="90" height="50" as="geometry" />
        </mxCell>
        <mxCell id="WJ2xPbu4sK1mDt2JDDbc-11" value="contact information" style="ellipse;whiteSpace=wrap;html=1;" parent="1" vertex="1">
          <mxGeometry x="-332.88" y="805" width="110" height="60" as="geometry" />
        </mxCell>
        <mxCell id="WJ2xPbu4sK1mDt2JDDbc-12" value="&lt;u&gt;seller_id&lt;/u&gt;" style="ellipse;whiteSpace=wrap;html=1;" parent="1" vertex="1">
          <mxGeometry x="-330" y="150" width="87.5" height="50" as="geometry" />
        </mxCell>
        <mxCell id="WJ2xPbu4sK1mDt2JDDbc-13" value="country" style="ellipse;whiteSpace=wrap;html=1;" parent="1" vertex="1">
          <mxGeometry x="-117.88" y="900" width="70" height="40" as="geometry" />
        </mxCell>
        <mxCell id="WJ2xPbu4sK1mDt2JDDbc-14" value="city" style="ellipse;whiteSpace=wrap;html=1;" parent="1" vertex="1">
          <mxGeometry x="-32.129999999999995" y="875" width="70" height="40" as="geometry" />
        </mxCell>
        <mxCell id="WJ2xPbu4sK1mDt2JDDbc-15" value="postal code" style="ellipse;whiteSpace=wrap;html=1;" parent="1" vertex="1">
          <mxGeometry x="-27.129999999999995" y="810" width="90" height="50" as="geometry" />
        </mxCell>
        <mxCell id="WJ2xPbu4sK1mDt2JDDbc-19" value="customer" style="rounded=0;whiteSpace=wrap;html=1;" parent="1" vertex="1">
          <mxGeometry x="195" y="160" width="100" height="50" as="geometry" />
        </mxCell>
        <mxCell id="WJ2xPbu4sK1mDt2JDDbc-20" value="&lt;u&gt;customer_id&lt;/u&gt;" style="ellipse;whiteSpace=wrap;html=1;" parent="1" vertex="1">
          <mxGeometry x="95" y="20" width="90" height="60" as="geometry" />
        </mxCell>
        <mxCell id="WJ2xPbu4sK1mDt2JDDbc-21" value="username" style="ellipse;whiteSpace=wrap;html=1;" parent="1" vertex="1">
          <mxGeometry x="245" y="20" width="80" height="50" as="geometry" />
        </mxCell>
        <mxCell id="WJ2xPbu4sK1mDt2JDDbc-22" value="password" style="ellipse;whiteSpace=wrap;html=1;" parent="1" vertex="1">
          <mxGeometry x="305" y="65" width="90" height="50" as="geometry" />
        </mxCell>
        <mxCell id="WJ2xPbu4sK1mDt2JDDbc-23" value="DoB" style="ellipse;whiteSpace=wrap;html=1;" parent="1" vertex="1">
          <mxGeometry x="175" y="70" width="70" height="40" as="geometry" />
        </mxCell>
        <mxCell id="WJ2xPbu4sK1mDt2JDDbc-24" value="gender" style="ellipse;whiteSpace=wrap;html=1;" parent="1" vertex="1">
          <mxGeometry x="405" y="165" width="80" height="40" as="geometry" />
        </mxCell>
        <mxCell id="WJ2xPbu4sK1mDt2JDDbc-25" value="address" style="ellipse;whiteSpace=wrap;html=1;" parent="1" vertex="1">
          <mxGeometry x="370" y="120" width="80" height="40" as="geometry" />
        </mxCell>
        <mxCell id="WJ2xPbu4sK1mDt2JDDbc-26" value="product" style="rounded=0;whiteSpace=wrap;html=1;" parent="1" vertex="1">
          <mxGeometry x="195" y="740" width="90" height="35" as="geometry" />
        </mxCell>
        <mxCell id="WJ2xPbu4sK1mDt2JDDbc-27" value="&lt;u&gt;product_id&lt;/u&gt;" style="ellipse;whiteSpace=wrap;html=1;" parent="1" vertex="1">
          <mxGeometry x="485" y="815" width="90" height="60" as="geometry" />
        </mxCell>
        <mxCell id="WJ2xPbu4sK1mDt2JDDbc-28" value="name" style="ellipse;whiteSpace=wrap;html=1;" parent="1" vertex="1">
          <mxGeometry x="535" y="890" width="90" height="50" as="geometry" />
        </mxCell>
        <mxCell id="WJ2xPbu4sK1mDt2JDDbc-29" value="type" style="ellipse;whiteSpace=wrap;html=1;" parent="1" vertex="1">
          <mxGeometry x="635" y="890" width="90" height="45" as="geometry" />
        </mxCell>
        <mxCell id="WJ2xPbu4sK1mDt2JDDbc-30" value="size" style="ellipse;whiteSpace=wrap;html=1;" parent="1" vertex="1">
          <mxGeometry x="745" y="770" width="70" height="40" as="geometry" />
        </mxCell>
        <mxCell id="WJ2xPbu4sK1mDt2JDDbc-31" value="price_per_unit" style="ellipse;whiteSpace=wrap;html=1;" parent="1" vertex="1">
          <mxGeometry x="730" y="850" width="90" height="60" as="geometry" />
        </mxCell>
        <mxCell id="WJ2xPbu4sK1mDt2JDDbc-38" value="order" style="rounded=0;whiteSpace=wrap;html=1;" parent="1" vertex="1">
          <mxGeometry x="52.5" y="367.5" width="105" height="35" as="geometry" />
        </mxCell>
        <mxCell id="WJ2xPbu4sK1mDt2JDDbc-42" value="&lt;u&gt;cart_id&lt;/u&gt;" style="ellipse;whiteSpace=wrap;html=1;" parent="1" vertex="1">
          <mxGeometry x="17.870000000000005" y="550" width="90" height="50" as="geometry" />
        </mxCell>
        <mxCell id="WJ2xPbu4sK1mDt2JDDbc-43" value="the number of products" style="ellipse;whiteSpace=wrap;html=1;" parent="1" vertex="1">
          <mxGeometry x="-102.13" y="560" width="100" height="50" as="geometry" />
        </mxCell>
        <mxCell id="WJ2xPbu4sK1mDt2JDDbc-50" value="" style="endArrow=none;html=1;rounded=0;entryX=0.5;entryY=1;entryDx=0;entryDy=0;" parent="1" target="WJ2xPbu4sK1mDt2JDDbc-1" edge="1">
          <mxGeometry width="50" height="50" relative="1" as="geometry">
            <mxPoint x="-135" y="330" as="sourcePoint" />
            <mxPoint x="-166" y="320" as="targetPoint" />
          </mxGeometry>
        </mxCell>
        <mxCell id="WJ2xPbu4sK1mDt2JDDbc-56" value="&lt;font style=&quot;font-size: 18px;&quot;&gt;1&lt;/font&gt;" style="edgeLabel;html=1;align=center;verticalAlign=middle;resizable=0;points=[];" parent="WJ2xPbu4sK1mDt2JDDbc-50" vertex="1" connectable="0">
          <mxGeometry x="0.5861" relative="1" as="geometry">
            <mxPoint x="-12" as="offset" />
          </mxGeometry>
        </mxCell>
        <mxCell id="WJ2xPbu4sK1mDt2JDDbc-51" value="" style="rhombus;whiteSpace=wrap;html=1;" parent="1" vertex="1">
          <mxGeometry x="-175" y="330" width="80" height="80" as="geometry" />
        </mxCell>
        <mxCell id="WJ2xPbu4sK1mDt2JDDbc-52" value="" style="endArrow=none;html=1;rounded=0;exitX=0.364;exitY=-0.009;exitDx=0;exitDy=0;exitPerimeter=0;entryX=0.349;entryY=0.847;entryDx=0;entryDy=0;entryPerimeter=0;" parent="1" edge="1" target="WJ2xPbu4sK1mDt2JDDbc-51" source="WJ2xPbu4sK1mDt2JDDbc-7">
          <mxGeometry width="50" height="50" relative="1" as="geometry">
            <mxPoint x="-147.28999999999985" y="756.0800000000002" as="sourcePoint" />
            <mxPoint x="-147" y="400" as="targetPoint" />
          </mxGeometry>
        </mxCell>
        <mxCell id="WJ2xPbu4sK1mDt2JDDbc-55" value="N" style="edgeLabel;html=1;align=center;verticalAlign=middle;resizable=0;points=[];" parent="WJ2xPbu4sK1mDt2JDDbc-52" vertex="1" connectable="0">
          <mxGeometry x="-0.3666" y="-1" relative="1" as="geometry">
            <mxPoint x="-11" y="94" as="offset" />
          </mxGeometry>
        </mxCell>
        <mxCell id="WJ2xPbu4sK1mDt2JDDbc-53" value="" style="endArrow=none;html=1;rounded=0;entryX=0.612;entryY=0.888;entryDx=0;entryDy=0;entryPerimeter=0;exitX=0.589;exitY=0.017;exitDx=0;exitDy=0;exitPerimeter=0;" parent="1" source="WJ2xPbu4sK1mDt2JDDbc-7" target="WJ2xPbu4sK1mDt2JDDbc-51" edge="1">
          <mxGeometry width="50" height="50" relative="1" as="geometry">
            <mxPoint x="160" y="730" as="sourcePoint" />
            <mxPoint x="210" y="680" as="targetPoint" />
          </mxGeometry>
        </mxCell>
        <mxCell id="WJ2xPbu4sK1mDt2JDDbc-57" value="sell" style="rhombus;whiteSpace=wrap;html=1;" parent="1" vertex="1">
          <mxGeometry x="17.869999999999997" y="720" width="80" height="80" as="geometry" />
        </mxCell>
        <mxCell id="WJ2xPbu4sK1mDt2JDDbc-59" value="" style="endArrow=none;html=1;rounded=0;entryX=0;entryY=0.5;entryDx=0;entryDy=0;exitX=1;exitY=0.5;exitDx=0;exitDy=0;" parent="1" source="WJ2xPbu4sK1mDt2JDDbc-7" target="WJ2xPbu4sK1mDt2JDDbc-57" edge="1">
          <mxGeometry width="50" height="50" relative="1" as="geometry">
            <mxPoint x="220" y="830" as="sourcePoint" />
            <mxPoint x="300" y="840" as="targetPoint" />
            <Array as="points" />
          </mxGeometry>
        </mxCell>
        <mxCell id="WJ2xPbu4sK1mDt2JDDbc-64" value="1" style="edgeLabel;html=1;align=center;verticalAlign=middle;resizable=0;points=[];" parent="WJ2xPbu4sK1mDt2JDDbc-59" vertex="1" connectable="0">
          <mxGeometry x="-0.7842" y="-2" relative="1" as="geometry">
            <mxPoint x="1" y="-12" as="offset" />
          </mxGeometry>
        </mxCell>
        <mxCell id="WJ2xPbu4sK1mDt2JDDbc-65" value="purchase" style="rhombus;whiteSpace=wrap;html=1;" parent="1" vertex="1">
          <mxGeometry x="205" y="362.5" width="80" height="80" as="geometry" />
        </mxCell>
        <mxCell id="WQUV_jJRk9BVvkySr6AF-2" value="place" style="rhombus;whiteSpace=wrap;html=1;" vertex="1" parent="1">
          <mxGeometry x="65" y="200" width="80" height="80" as="geometry" />
        </mxCell>
        <mxCell id="WQUV_jJRk9BVvkySr6AF-5" value="" style="endArrow=none;html=1;rounded=0;entryX=0;entryY=0.5;entryDx=0;entryDy=0;exitX=0.5;exitY=0;exitDx=0;exitDy=0;" edge="1" parent="1" source="WQUV_jJRk9BVvkySr6AF-2" target="WJ2xPbu4sK1mDt2JDDbc-19">
          <mxGeometry width="50" height="50" relative="1" as="geometry">
            <mxPoint x="95" y="260" as="sourcePoint" />
            <mxPoint x="145" y="210" as="targetPoint" />
          </mxGeometry>
        </mxCell>
        <mxCell id="WQUV_jJRk9BVvkySr6AF-8" value="1" style="edgeLabel;html=1;align=center;verticalAlign=middle;resizable=0;points=[];" vertex="1" connectable="0" parent="WQUV_jJRk9BVvkySr6AF-5">
          <mxGeometry x="0.7603" y="-1" relative="1" as="geometry">
            <mxPoint x="-9" y="-13" as="offset" />
          </mxGeometry>
        </mxCell>
        <mxCell id="WQUV_jJRk9BVvkySr6AF-6" value="" style="endArrow=none;html=1;rounded=0;entryX=0.393;entryY=0.893;entryDx=0;entryDy=0;entryPerimeter=0;exitX=0.417;exitY=-0.008;exitDx=0;exitDy=0;exitPerimeter=0;" edge="1" parent="1" source="WJ2xPbu4sK1mDt2JDDbc-38" target="WQUV_jJRk9BVvkySr6AF-2">
          <mxGeometry width="50" height="50" relative="1" as="geometry">
            <mxPoint x="110" y="350" as="sourcePoint" />
            <mxPoint x="160" y="300" as="targetPoint" />
          </mxGeometry>
        </mxCell>
        <mxCell id="WQUV_jJRk9BVvkySr6AF-7" value="" style="endArrow=none;html=1;rounded=0;entryX=0.573;entryY=0.922;entryDx=0;entryDy=0;entryPerimeter=0;exitX=0.549;exitY=-0.013;exitDx=0;exitDy=0;exitPerimeter=0;" edge="1" parent="1" source="WJ2xPbu4sK1mDt2JDDbc-38" target="WQUV_jJRk9BVvkySr6AF-2">
          <mxGeometry width="50" height="50" relative="1" as="geometry">
            <mxPoint x="150" y="360" as="sourcePoint" />
            <mxPoint x="200" y="310" as="targetPoint" />
            <Array as="points" />
          </mxGeometry>
        </mxCell>
        <mxCell id="WQUV_jJRk9BVvkySr6AF-11" value="N" style="edgeLabel;html=1;align=center;verticalAlign=middle;resizable=0;points=[];" vertex="1" connectable="0" parent="WQUV_jJRk9BVvkySr6AF-7">
          <mxGeometry x="-0.3458" y="-1" relative="1" as="geometry">
            <mxPoint x="9" y="18" as="offset" />
          </mxGeometry>
        </mxCell>
        <mxCell id="WQUV_jJRk9BVvkySr6AF-12" value="contain" style="rhombus;whiteSpace=wrap;html=1;" vertex="1" parent="1">
          <mxGeometry x="140" y="560" width="80" height="80" as="geometry" />
        </mxCell>
        <mxCell id="WQUV_jJRk9BVvkySr6AF-13" value="" style="endArrow=none;html=1;rounded=0;entryX=0.5;entryY=1;entryDx=0;entryDy=0;exitX=0.5;exitY=0;exitDx=0;exitDy=0;" edge="1" parent="1" source="WQUV_jJRk9BVvkySr6AF-12" target="WJ2xPbu4sK1mDt2JDDbc-38">
          <mxGeometry width="50" height="50" relative="1" as="geometry">
            <mxPoint x="500" y="520" as="sourcePoint" />
            <mxPoint x="550" y="470" as="targetPoint" />
          </mxGeometry>
        </mxCell>
        <mxCell id="WQUV_jJRk9BVvkySr6AF-17" value="N" style="edgeLabel;html=1;align=center;verticalAlign=middle;resizable=0;points=[];" vertex="1" connectable="0" parent="WQUV_jJRk9BVvkySr6AF-13">
          <mxGeometry x="-0.2221" relative="1" as="geometry">
            <mxPoint x="-64" y="-49" as="offset" />
          </mxGeometry>
        </mxCell>
        <mxCell id="WQUV_jJRk9BVvkySr6AF-15" value="" style="endArrow=none;html=1;rounded=0;exitX=0.25;exitY=0;exitDx=0;exitDy=0;entryX=0.5;entryY=1;entryDx=0;entryDy=0;" edge="1" parent="1" source="WJ2xPbu4sK1mDt2JDDbc-26" target="WQUV_jJRk9BVvkySr6AF-12">
          <mxGeometry width="50" height="50" relative="1" as="geometry">
            <mxPoint x="590" y="730" as="sourcePoint" />
            <mxPoint x="610" y="600" as="targetPoint" />
          </mxGeometry>
        </mxCell>
        <mxCell id="WQUV_jJRk9BVvkySr6AF-20" value="M" style="edgeLabel;html=1;align=center;verticalAlign=middle;resizable=0;points=[];" vertex="1" connectable="0" parent="WQUV_jJRk9BVvkySr6AF-15">
          <mxGeometry x="-0.18" y="1" relative="1" as="geometry">
            <mxPoint x="-14" y="24" as="offset" />
          </mxGeometry>
        </mxCell>
        <mxCell id="WQUV_jJRk9BVvkySr6AF-21" value="" style="endArrow=none;html=1;rounded=0;entryX=0.002;entryY=0.36;entryDx=0;entryDy=0;entryPerimeter=0;exitX=0.907;exitY=0.408;exitDx=0;exitDy=0;exitPerimeter=0;" edge="1" parent="1" source="WJ2xPbu4sK1mDt2JDDbc-57" target="WJ2xPbu4sK1mDt2JDDbc-26">
          <mxGeometry width="50" height="50" relative="1" as="geometry">
            <mxPoint x="80" y="810" as="sourcePoint" />
            <mxPoint x="130" y="760" as="targetPoint" />
          </mxGeometry>
        </mxCell>
        <mxCell id="WQUV_jJRk9BVvkySr6AF-25" value="N" style="edgeLabel;html=1;align=center;verticalAlign=middle;resizable=0;points=[];" vertex="1" connectable="0" parent="WQUV_jJRk9BVvkySr6AF-21">
          <mxGeometry x="0.2489" y="-1" relative="1" as="geometry">
            <mxPoint y="-14" as="offset" />
          </mxGeometry>
        </mxCell>
        <mxCell id="WQUV_jJRk9BVvkySr6AF-22" value="" style="endArrow=none;html=1;rounded=0;exitX=0.933;exitY=0.564;exitDx=0;exitDy=0;exitPerimeter=0;entryX=0;entryY=0.718;entryDx=0;entryDy=0;entryPerimeter=0;" edge="1" parent="1" source="WJ2xPbu4sK1mDt2JDDbc-57" target="WJ2xPbu4sK1mDt2JDDbc-26">
          <mxGeometry width="50" height="50" relative="1" as="geometry">
            <mxPoint x="95" y="815" as="sourcePoint" />
            <mxPoint x="145" y="765" as="targetPoint" />
          </mxGeometry>
        </mxCell>
        <mxCell id="WQUV_jJRk9BVvkySr6AF-26" value="payment method" style="rounded=0;whiteSpace=wrap;html=1;" vertex="1" parent="1">
          <mxGeometry x="475" y="388.75" width="110" height="50" as="geometry" />
        </mxCell>
        <mxCell id="WQUV_jJRk9BVvkySr6AF-27" value="cart" style="rounded=0;whiteSpace=wrap;html=1;" vertex="1" parent="1">
          <mxGeometry x="310" y="397.5" width="90" height="32.5" as="geometry" />
        </mxCell>
        <mxCell id="WQUV_jJRk9BVvkySr6AF-28" value="&lt;u&gt;order_id&lt;/u&gt;" style="ellipse;whiteSpace=wrap;html=1;" vertex="1" parent="1">
          <mxGeometry x="-47.5" y="330" width="81.87" height="40" as="geometry" />
        </mxCell>
        <mxCell id="WQUV_jJRk9BVvkySr6AF-29" value="timestamp" style="ellipse;whiteSpace=wrap;html=1;" vertex="1" parent="1">
          <mxGeometry x="600.88" y="650" width="101" height="60" as="geometry" />
        </mxCell>
        <mxCell id="WQUV_jJRk9BVvkySr6AF-30" value="delivery information" style="ellipse;whiteSpace=wrap;html=1;" vertex="1" parent="1">
          <mxGeometry x="718.88" y="660" width="120" height="80" as="geometry" />
        </mxCell>
        <mxCell id="WQUV_jJRk9BVvkySr6AF-31" value="&lt;u&gt;customer_id&lt;/u&gt;" style="ellipse;whiteSpace=wrap;html=1;" vertex="1" parent="1">
          <mxGeometry x="636.38" y="340" width="88.62" height="50" as="geometry" />
        </mxCell>
        <mxCell id="WQUV_jJRk9BVvkySr6AF-32" value="&lt;u&gt;pm_id&lt;/u&gt;" style="ellipse;whiteSpace=wrap;html=1;" vertex="1" parent="1">
          <mxGeometry x="632.5" y="430" width="95" height="50" as="geometry" />
        </mxCell>
        <mxCell id="WQUV_jJRk9BVvkySr6AF-33" value="type" style="ellipse;whiteSpace=wrap;html=1;" vertex="1" parent="1">
          <mxGeometry x="636.38" y="275" width="73.75" height="40" as="geometry" />
        </mxCell>
        <mxCell id="WQUV_jJRk9BVvkySr6AF-34" value="account information" style="ellipse;whiteSpace=wrap;html=1;" vertex="1" parent="1">
          <mxGeometry x="617.5" y="500" width="125" height="65" as="geometry" />
        </mxCell>
        <mxCell id="WQUV_jJRk9BVvkySr6AF-35" value="own" style="rhombus;whiteSpace=wrap;html=1;" vertex="1" parent="1">
          <mxGeometry x="295" y="275" width="80" height="80" as="geometry" />
        </mxCell>
        <mxCell id="WQUV_jJRk9BVvkySr6AF-36" value="" style="endArrow=none;html=1;rounded=0;entryX=0.5;entryY=1;entryDx=0;entryDy=0;exitX=0.5;exitY=0;exitDx=0;exitDy=0;" edge="1" parent="1" source="WQUV_jJRk9BVvkySr6AF-35" target="WJ2xPbu4sK1mDt2JDDbc-19">
          <mxGeometry width="50" height="50" relative="1" as="geometry">
            <mxPoint x="200" y="320" as="sourcePoint" />
            <mxPoint x="250" y="270" as="targetPoint" />
          </mxGeometry>
        </mxCell>
        <mxCell id="WQUV_jJRk9BVvkySr6AF-40" value="1&lt;br&gt;" style="edgeLabel;html=1;align=center;verticalAlign=middle;resizable=0;points=[];" vertex="1" connectable="0" parent="WQUV_jJRk9BVvkySr6AF-36">
          <mxGeometry x="0.3578" relative="1" as="geometry">
            <mxPoint x="-29" y="-1" as="offset" />
          </mxGeometry>
        </mxCell>
        <mxCell id="WQUV_jJRk9BVvkySr6AF-41" value="" style="endArrow=none;html=1;rounded=0;entryX=0.422;entryY=0.922;entryDx=0;entryDy=0;entryPerimeter=0;exitX=0.207;exitY=-0.004;exitDx=0;exitDy=0;exitPerimeter=0;" edge="1" parent="1" source="WQUV_jJRk9BVvkySr6AF-27" target="WQUV_jJRk9BVvkySr6AF-35">
          <mxGeometry width="50" height="50" relative="1" as="geometry">
            <mxPoint x="275" y="417.5" as="sourcePoint" />
            <mxPoint x="325" y="367.5" as="targetPoint" />
          </mxGeometry>
        </mxCell>
        <mxCell id="WQUV_jJRk9BVvkySr6AF-43" value="1&lt;br&gt;" style="edgeLabel;html=1;align=center;verticalAlign=middle;resizable=0;points=[];" vertex="1" connectable="0" parent="WQUV_jJRk9BVvkySr6AF-41">
          <mxGeometry x="-0.4583" y="1" relative="1" as="geometry">
            <mxPoint x="-8" y="3" as="offset" />
          </mxGeometry>
        </mxCell>
        <mxCell id="WQUV_jJRk9BVvkySr6AF-42" value="" style="endArrow=none;html=1;rounded=0;entryX=0.556;entryY=0.942;entryDx=0;entryDy=0;entryPerimeter=0;exitX=0.328;exitY=-0.004;exitDx=0;exitDy=0;exitPerimeter=0;" edge="1" parent="1" source="WQUV_jJRk9BVvkySr6AF-27" target="WQUV_jJRk9BVvkySr6AF-35">
          <mxGeometry width="50" height="50" relative="1" as="geometry">
            <mxPoint x="300" y="410" as="sourcePoint" />
            <mxPoint x="350" y="360" as="targetPoint" />
          </mxGeometry>
        </mxCell>
        <mxCell id="WQUV_jJRk9BVvkySr6AF-44" value="own" style="rhombus;whiteSpace=wrap;html=1;" vertex="1" parent="1">
          <mxGeometry x="315" y="537.5" width="80" height="80" as="geometry" />
        </mxCell>
        <mxCell id="WQUV_jJRk9BVvkySr6AF-45" value="" style="endArrow=none;html=1;rounded=0;entryX=0.5;entryY=1;entryDx=0;entryDy=0;exitX=0.5;exitY=0;exitDx=0;exitDy=0;" edge="1" parent="1" source="WQUV_jJRk9BVvkySr6AF-44" target="WQUV_jJRk9BVvkySr6AF-27">
          <mxGeometry width="50" height="50" relative="1" as="geometry">
            <mxPoint x="280" y="560" as="sourcePoint" />
            <mxPoint x="330" y="510" as="targetPoint" />
          </mxGeometry>
        </mxCell>
        <mxCell id="WQUV_jJRk9BVvkySr6AF-48" value="N" style="edgeLabel;html=1;align=center;verticalAlign=middle;resizable=0;points=[];" vertex="1" connectable="0" parent="WQUV_jJRk9BVvkySr6AF-45">
          <mxGeometry x="-0.3891" relative="1" as="geometry">
            <mxPoint x="-10" y="-57" as="offset" />
          </mxGeometry>
        </mxCell>
        <mxCell id="WQUV_jJRk9BVvkySr6AF-46" value="" style="endArrow=none;html=1;rounded=0;entryX=0.5;entryY=1;entryDx=0;entryDy=0;exitX=0.5;exitY=0;exitDx=0;exitDy=0;" edge="1" parent="1" source="WJ2xPbu4sK1mDt2JDDbc-26" target="WQUV_jJRk9BVvkySr6AF-44">
          <mxGeometry width="50" height="50" relative="1" as="geometry">
            <mxPoint x="260" y="700" as="sourcePoint" />
            <mxPoint x="310" y="650" as="targetPoint" />
          </mxGeometry>
        </mxCell>
        <mxCell id="WQUV_jJRk9BVvkySr6AF-47" value="M" style="edgeLabel;html=1;align=center;verticalAlign=middle;resizable=0;points=[];" vertex="1" connectable="0" parent="WQUV_jJRk9BVvkySr6AF-46">
          <mxGeometry x="0.7641" relative="1" as="geometry">
            <mxPoint x="-72" y="98" as="offset" />
          </mxGeometry>
        </mxCell>
        <mxCell id="WQUV_jJRk9BVvkySr6AF-50" value="have" style="rhombus;whiteSpace=wrap;html=1;" vertex="1" parent="1">
          <mxGeometry x="490" y="260" width="80" height="80" as="geometry" />
        </mxCell>
        <mxCell id="WQUV_jJRk9BVvkySr6AF-51" value="" style="endArrow=none;html=1;rounded=0;entryX=1;entryY=1;entryDx=0;entryDy=0;exitX=0.5;exitY=0;exitDx=0;exitDy=0;" edge="1" parent="1" source="WQUV_jJRk9BVvkySr6AF-50" target="WJ2xPbu4sK1mDt2JDDbc-19">
          <mxGeometry width="50" height="50" relative="1" as="geometry">
            <mxPoint x="360" y="290" as="sourcePoint" />
            <mxPoint x="410" y="240" as="targetPoint" />
          </mxGeometry>
        </mxCell>
        <mxCell id="WQUV_jJRk9BVvkySr6AF-55" value="1" style="edgeLabel;html=1;align=center;verticalAlign=middle;resizable=0;points=[];" vertex="1" connectable="0" parent="WQUV_jJRk9BVvkySr6AF-51">
          <mxGeometry x="0.7937" relative="1" as="geometry">
            <mxPoint x="-9" y="-15" as="offset" />
          </mxGeometry>
        </mxCell>
        <mxCell id="WQUV_jJRk9BVvkySr6AF-56" value="" style="endArrow=none;html=1;rounded=0;entryX=0.427;entryY=0.925;entryDx=0;entryDy=0;entryPerimeter=0;exitX=0.444;exitY=0;exitDx=0;exitDy=0;exitPerimeter=0;" edge="1" parent="1" source="WQUV_jJRk9BVvkySr6AF-26" target="WQUV_jJRk9BVvkySr6AF-50">
          <mxGeometry width="50" height="50" relative="1" as="geometry">
            <mxPoint x="480" y="410" as="sourcePoint" />
            <mxPoint x="530" y="360" as="targetPoint" />
          </mxGeometry>
        </mxCell>
        <mxCell id="WQUV_jJRk9BVvkySr6AF-57" value="" style="endArrow=none;html=1;rounded=0;entryX=0.562;entryY=0.934;entryDx=0;entryDy=0;entryPerimeter=0;exitX=0.545;exitY=-0.003;exitDx=0;exitDy=0;exitPerimeter=0;" edge="1" parent="1" source="WQUV_jJRk9BVvkySr6AF-26" target="WQUV_jJRk9BVvkySr6AF-50">
          <mxGeometry width="50" height="50" relative="1" as="geometry">
            <mxPoint x="500" y="400" as="sourcePoint" />
            <mxPoint x="550" y="350" as="targetPoint" />
          </mxGeometry>
        </mxCell>
        <mxCell id="WQUV_jJRk9BVvkySr6AF-58" value="N" style="edgeLabel;html=1;align=center;verticalAlign=middle;resizable=0;points=[];" vertex="1" connectable="0" parent="WQUV_jJRk9BVvkySr6AF-57">
          <mxGeometry x="-0.3467" y="-2" relative="1" as="geometry">
            <mxPoint x="13" y="9" as="offset" />
          </mxGeometry>
        </mxCell>
      </root>
    </mxGraphModel>
  </diagram>
</mxfile>
